# xmcd CD database file
#
# Track frame offsets:
#	150
#	18494
#	31185
#	54479
#	68692
#	85093
#	100964
#	114150
#	129450
#	146206
#	162544
#	181564
#	194701
#	217806
#	235892
#
# Disc length: 3406 seconds
#
# Revision: 0
# Processed by: cddbd v1.5PL3 Copyright (c) Steve Scherf et al.
# Submitted via: CDex 1.40Beta9
#
DISCID=c80d4c0f
DTITLE=Country Mile - Lessons
DYEAR=1900
DGENRE=Country
TTITLE0=Country Mile - Somewhere South Of Lonely
TTITLE1=Country Mile - She Ain't Going Back Again
TTITLE2=Country Mile - Things Change
TTITLE3=Country Mile - I Don't Even Know Me Anymore
TTITLE4=Country Mile - You told Me How To Live It
TTITLE5=Country Mile - I Guess That Wasn't Good Enough For You
TTITLE6=Country Mile - Two Been Done Wrongs'
TTITLE7=Country Mile - My Woman
TTITLE8=Country Mile - Cancun, Mexico
TTITLE9=Country Mile - We'll Get There Someday
TTITLE10=Country Mile - The Trip
TTITLE11=Country Mile - A Day Like This
TTITLE12=Country Mile - Ohio
TTITLE13=Country Mile - Country Mile
TTITLE14=Country Mile - If Angels Have Wings
EXTD=ID3G: 2
EXTT0=
EXTT1=
EXTT2=
EXTT3=
EXTT4=
EXTT5=
EXTT6=
EXTT7=
EXTT8=
EXTT9=
EXTT10=
EXTT11=
EXTT12=
EXTT13=
EXTT14=
PLAYORDER=
